<?xml version="1.0" encoding="UTF-8" standalone="no"?>
<svg
   xmlns:dc="http://purl.org/dc/elements/1.1/"
   xmlns:cc="http://creativecommons.org/ns#"
   xmlns:rdf="http://www.w3.org/1999/02/22-rdf-syntax-ns#"
   xmlns:svg="http://www.w3.org/2000/svg"
   xmlns="http://www.w3.org/2000/svg"
   xmlns:sodipodi="http://sodipodi.sourceforge.net/DTD/sodipodi-0.dtd"
   xmlns:inkscape="http://www.inkscape.org/namespaces/inkscape"
   viewBox="0 0 26.458 20.458"
   version="1.1"
   id="core-defense-logo"
   sodipodi:docname="Logo.svg"
   inkscape:version="0.92.4 (unknown)">

  <metadata
     id="metadata20">
    <rdf:RDF>
      <cc:Work
         rdf:about="">
        <dc:format>image/svg+xml</dc:format>
        <dc:type
           rdf:resource="http://purl.org/dc/dcmitype/StillImage" />
        <dc:title></dc:title>
      </cc:Work>
    </rdf:RDF>
  </metadata>
  <defs
     id="defs18" />
  <sodipodi:namedview
     pagecolor="#ffffff"
     bordercolor="#666666"
     borderopacity="1"
     objecttolerance="10"
     gridtolerance="10"
     guidetolerance="10"
     inkscape:pageopacity="0"
     inkscape:pageshadow="2"
     inkscape:window-width="2560"
     inkscape:window-height="1011"
     id="namedview16"
     showgrid="false"
     inkscape:zoom="12.850556"
     inkscape:cx="8.6764409"
     inkscape:cy="7.6843936"
     inkscape:window-x="0"
     inkscape:window-y="0"
     inkscape:window-maximized="1"
     inkscape:current-layer="core-defense-logo" />
  <path
     d="M 6.262,8.7419996 5.52,9.4819998 V 12.392 l 0.023,0.023 0.72,0.719 H 8.395 L 9.079,12.45 v -0.002 l 0.045,-0.045 v -0.758 h -0.98 v 0.39 l -0.237,0.24 H 6.763 L 6.5,12.01 V 9.8629998 l 0.197,-0.197 0.065,-0.066 h 1.145 l 0.237,0.238 V 10.228 H 8.256 V 10.23 H 9.079 V 10.228 H 9.124 V 9.4699998 L 8.395,8.7409996 Z m 3.96,0 -0.741,0.7400002 V 12.392 l 0.023,0.023 0.719,0.719 h 2.243 l 0.695,-0.696 0.047,-0.046 V 9.4819998 L 12.466,8.7419996 Z m 3.553,0 V 13.134 h 0.98 v -1.62 h 1.204 l 0.32,0.355 v 1.265 h 0.979 V 11.62 l -0.019,-0.021 -0.386,-0.423 0.336,-0.34 v -10e-4 l 0.046,-0.047 V 9.4419998 L 16.542,8.7419996 Z m 4.083,0 V 13.134 h 3.217 V 12.281 H 18.84 V 11.349 H 20.9 V 10.507 H 18.839 V 9.5959998 h 2.236 V 8.7419996 Z m -7.57,0.158 -0.65,0.6500002 z m 4.467,0.6900002 h 1.348 l 0.164,0.164 V 10.512 l -0.166,0.165 h -1.346 z m -4.031,0.012 h 1.24 l 0.262,0.26 V 12.012 l -0.263,0.263 H 10.724 L 10.461,12.012 V 9.8639998 Z M 18.792,10.666 h 1.95 z m -4.082,0.169 h 1.458 z m -2.372,1.287 v 0.002 L 12.03,12.432 H 10.724 L 10.722,12.43 h 1.307 l 0.023,-0.021 z M 8.256,12.147 7.972,12.432 H 6.762 L 6.761,12.43 h 1.21 z M 0.197,14.79 v 4.392 H 3.02 L 3.746,18.456 V 18.455 L 3.791,18.41 V 15.56 L 3.019,14.79 Z m 4.162,0 v 4.392 H 7.577 V 18.328 H 5.34 v -0.93 H 7.356 V 17.397 H 7.403 V 16.555 H 5.34 V 15.644 H 7.578 V 14.79 Z m 3.664,0 v 4.392 h 0.981 v -1.67 h 1.887 V 16.658 H 9.004 v -1.014 h 2.178 V 14.79 Z m 3.484,0 v 4.392 h 3.219 v -0.854 h -2.239 v -0.93 h 2.017 v -0.001 h 0.046 v -0.842 h -2.063 v -0.911 h 2.239 V 14.79 Z m 3.665,0 v 4.392 h 0.951 v -2.703 l 1.777,2.703 h 0.859 V 14.79 h -0.95 v 2.706 L 16.031,14.79 Z m 4.835,0 -0.697,0.7 v 1.184 l 0.697,0.7 h 1.604 l 0.154,0.151 v 0.638 l -0.16,0.16 h -1.186 l -0.154,-0.155 v -0.403 h -0.968 v 0.717 l 0.023,0.023 0.676,0.677 h 2.026 l 0.665,-0.666 0.046,-0.046 v -1.256 l -0.7,-0.7 H 20.43 L 20.277,16.36 v -0.556 l 0.153,-0.155 h 1.132 l 0.154,0.154 v 0.41 h 0.968 V 15.49 l -0.699,-0.7 z m 3.233,0 v 4.392 h 3.218 V 18.328 H 24.22 v -0.93 h 2.017 v -0.001 h 0.046 V 16.555 H 24.22 v -0.911 h 2.238 V 14.79 Z m -3.166,0.158 -0.608,0.608 V 15.554 Z M 1.177,15.65 h 1.372 l 0.26,0.262 v 2.147 l -0.26,0.263 H 1.177 Z m 19.252,1.02 h 1.538 l 0.002,0.002 H 20.431 Z M 5.293,16.713 h 1.951 v 10e-4 H 5.293 Z m 7.149,0 h 1.95 v 10e-4 h -1.95 z m 11.733,0 h 1.95 v 10e-4 h -1.95 z M 8.958,16.816 h 1.776 v 0.001 H 8.958 Z m 8.95,1.004 h 0.013 -0.012 z m 1.546,0.103 h 0.653 z m 2.423,0.35 v 0.001 l -0.206,0.206 h -0.002 z"
     style="line-height:1;-inkscape-font-specification:'Chakra Petch Bold';text-align:center"
     id="text-shadow"
     inkscape:connector-curvature="0" />
  <path
     d="m 23.069,14.58 h 3.06 v 0.695 h -2.238 v 1.07 h 2.063 v 0.684 H 23.89 v 1.089 h 2.238 v 0.695 h -3.06 z m -3.943,3.58 v -0.605 h 0.81 v 0.357 l 0.2,0.2 h 1.252 l 0.205,-0.206 v -0.701 l -0.2,-0.2 h -1.602 l -0.653,-0.653 v -1.119 l 0.653,-0.653 h 1.911 l 0.653,0.653 v 0.61 h -0.81 v -0.362 l -0.2,-0.2 h -1.197 l -0.2,0.2 v 0.623 l 0.2,0.2 h 1.602 l 0.654,0.653 v 1.191 l -0.666,0.665 h -1.96 z M 15,14.58 h 0.738 l 1.887,2.873 h 0.012 V 14.58 h 0.792 v 4.233 h -0.738 l -1.887,-2.866 h -0.012 v 2.866 H 15 Z m -3.665,0 h 3.06 v 0.695 h -2.238 v 1.07 h 2.063 v 0.684 h -2.063 v 1.089 h 2.238 v 0.695 h -3.06 z m -3.484,0 h 3 v 0.695 H 8.675 v 1.174 h 1.887 v 0.695 H 8.675 v 1.67 H 7.852 Z m -3.665,0 h 3.06 v 0.695 H 5.01 v 1.07 h 2.062 v 0.684 H 5.01 v 1.089 h 2.237 v 0.695 h -3.06 z m -4.161,0 h 2.71 l 0.725,0.726 v 2.782 L 2.735,18.813 H 0.026 Z m 2.304,3.532 0.309,-0.309 V 15.59 L 2.329,15.281 H 0.85 v 2.83 z M 17.685,8.5319996 h 3.06 V 9.2269998 H 18.51 V 10.297 h 2.062 v 0.684 H 18.51 v 1.089 h 2.237 v 0.695 h -3.06 z M 16.929,11.362 v 1.403 H 16.107 V 11.55 l -0.363,-0.405 h -1.319 v 1.62 H 13.603 V 8.5319996 h 2.655 l 0.647,0.6530002 V 10.467 l -0.411,0.417 z m -2.504,-0.895 h 1.458 l 0.212,-0.212 V 9.4329998 l -0.212,-0.212 H 14.425 Z M 9.31,12.07 V 9.2269998 l 0.695,-0.6950002 h 2.177 l 0.696,0.6950002 V 12.07 l -0.696,0.695 h -2.177 z m 2.437,-0.006 0.308,-0.309 V 9.5419998 l -0.308,-0.309 h -1.306 l -0.309,0.309 V 11.755 l 0.309,0.309 z M 5.348,12.07 V 9.2269998 L 6.044,8.5319996 h 2.068 l 0.684,0.6830002 v 0.647 H 7.973 v -0.344 l -0.284,-0.285 h -1.21 l -0.308,0.309 V 11.755 l 0.308,0.309 h 1.21 L 7.973,11.78 v -0.345 h 0.823 v 0.647 L 8.112,12.765 H 6.044 Z"
     id="text"
     inkscape:connector-curvature="0"
     style="fill:#26a7ce;stroke:#000000;stroke-width:0.05;stroke-miterlimit:4;stroke-dasharray:none" />
  <g
     id="core-shadow">
    <path
       style="fill:#000000;fill-opacity:1;stroke:#000000;stroke-width:0.042804;stroke-miterlimit:4;stroke-dasharray:none"
       inkscape:connector-curvature="0"
       id="core-shadow-base"
       d="m 13.428094,3.0788915 a 1.326924,1.326924 0 1 0 0,2.6538481 1.3269241,1.3269241 0 0 0 0,-2.6538481 z m 0,0.4982385 a 0.82954146,0.82954146 0 1 1 0,1.6590826 0.82954146,0.82954146 0 0 1 0,-1.6590826 z" />
    <g
       id="core-shadow-layers">
      <path
         style="fill:#000000;fill-opacity:0.62745098;stroke:#000000;stroke-width:0.042804;stroke-miterlimit:4;stroke-dasharray:none;stroke-opacity:0.62745098"
         inkscape:connector-curvature="0"
         d="m 11.93644,1.8187422 a 2.9860068,2.9860068 0 0 0 -0.619801,0.4759804 l 0.82098,0.8209807 A 1.8277307,1.8277307 0 0 1 13.269357,2.587502 L 13.167483,1.431794 A 2.9860068,2.9860068 0 0 0 11.93644,1.8195983 Z m -1.449343,2.0700013 c -0.121563,0.6908561 0.0034,1.4039711 0.354417,2.0117881 l 1.005895,-0.581278 a 1.8174577,1.8174577 0 0 1 -0.216588,-1.229331 z m 4.434494,-2.0674331 -0.581278,1.0050379 a 1.8157456,1.8157456 0 0 1 0.803003,0.9562413 L 16.233962,3.3853685 A 2.9860068,2.9860068 0 0 0 14.920735,1.8213104 Z m -1.810609,4.3831292 -0.201179,1.143723 a 2.9842947,2.9842947 0 0 0 2.011788,-0.354417 l -0.581278,-1.005894 c -0.386948,0.222581 -0.821836,0.288499 -1.229331,0.216588 z"
         id="core-shadow-layer-1">
        <animateTransform
           attributeName="transform"
           type="rotate"
           from="0 13.428106784820557 4.406757712364197" 
           to="360 13.428106784820557 4.406757712364197"
           dur="16s"
           repeatCount="indefinite" />
      </path>
      <path
         style="fill:#000000;fill-opacity:0.62745098;stroke:#000000;stroke-width:0.042804;stroke-miterlimit:4;stroke-dasharray:none;stroke-opacity:0.62745098"
         inkscape:connector-curvature="0"
         d="m 10.981911,2.6936559 a 2.9860068,2.9860068 0 0 0 0.333872,3.8241097 L 12.13762,5.6959286 A 1.8191699,1.8191699 0 0 1 11.933016,3.35883 Z m 4.271839,1.7121597 c 0,0.900597 -0.652333,1.647954 -1.508413,1.797768 l 0.201179,1.143723 a 2.9860068,2.9860068 0 0 0 2.468079,-2.940635 z"
         id="core-shadow-layer-2">
        <animateTransform
           attributeName="transform"
           type="rotate"
           from="0 13.428106784820557 4.406757712364197" 
           to="360 13.428106784820557 4.406757712364197"
           dur="12s"
           repeatCount="indefinite" />
      </path>
      <path
         style="fill:#000000;fill-opacity:0.62745098;stroke:#000000;stroke-width:0.042804;stroke-miterlimit:4;stroke-dasharray:none;stroke-opacity:0.62745098"
         inkscape:connector-curvature="0"
         d="m 13.427732,1.4198089 c -0.260249,0 -0.520497,0.034243 -0.772184,0.1018735 l 0.299628,1.1214648 a 1.8294428,1.8294428 0 0 1 0.631787,-0.054789 l 0.101018,-1.15742 a 2.944915,2.944915 0 0 0 -0.260249,-0.011129 z m 0.77304,0.1018735 -0.299627,1.1214648 c 0.208026,0.055645 0.4015,0.1472457 0.573572,0.267953 l 0.666031,-0.9502488 a 2.987719,2.987719 0 0 0 -0.939976,-0.439169 z m 1.052979,2.8849892 c 0,0.219157 -0.03938,0.428896 -0.111291,0.624083 l 1.091502,0.397221 c 0.119851,-0.327879 0.179776,-0.673735 0.179776,-1.021304 z m -2.872149,1.494716 -0.66603,0.950249 c 0.285074,0.200323 0.603536,0.34928 0.939976,0.439169 l 0.299628,-1.121465 a 1.8148895,1.8148895 0 0 1 -0.573574,-0.267953 z"
         id="core-shadow-layer-3">
        <animateTransform
           attributeName="transform"
           type="rotate"
           from="0 13.428106784820557 4.406757712364197" 
           to="-360 13.428106784820557 4.406757712364197"
           dur="8s"
           repeatCount="indefinite" />
      </path>
    </g>
  </g>
  <g
     id="core">
    <path
       style="fill:#26a7ce;stroke:#000000;stroke-width:0.042804;stroke-miterlimit:4;stroke-dasharray:none"
       inkscape:connector-curvature="0"
       id="core-base"
       d="m 13.228973,2.8085781 a 1.3269239,1.3269239 0 1 0 0,2.6538475 1.3269239,1.3269239 0 0 0 0,-2.6538475 z m 0,0.4982385 a 0.82954155,0.82954155 0 1 1 0,1.659083 0.82954155,0.82954155 0 0 1 0,-1.659083 z" />
    <g
       id="core-layers">
      <path
         style="fill:#26a7ce;fill-opacity:0.62699998;stroke:#000000;stroke-width:0.042804;stroke-miterlimit:4;stroke-dasharray:none;stroke-opacity:0.62745098"
         inkscape:connector-curvature="0"
         d="M 11.737321,1.5484284 A 2.9860068,2.9860068 0 0 0 11.117519,2.0244089 L 11.9385,2.8453895 A 1.8277307,1.8277307 0 0 1 13.070237,2.3171882 L 12.968364,1.1614803 a 2.9860068,2.9860068 0 0 0 -1.231043,0.3878042 z m -1.449344,2.0700013 c -0.121563,0.6908569 0.0034,1.4039709 0.354418,2.0117879 l 1.005894,-0.581278 A 1.8174577,1.8174577 0 0 1 11.4317,3.8196085 Z m 4.434495,-2.067433 -0.581279,1.0050378 a 1.8157456,1.8157456 0 0 1 0.803003,0.9562413 l 1.090646,-0.3972211 a 2.9860068,2.9860068 0 0 0 -1.313226,-1.564058 z m -1.810609,4.3831289 -0.201179,1.143723 a 2.9842947,2.9842947 0 0 0 2.011788,-0.354417 l -0.581279,-1.005894 c -0.386948,0.222581 -0.821836,0.288499 -1.22933,0.216588 z"
         id="core-layer-1">
        <animateTransform
           attributeName="transform"
           type="rotate"
           from="0 13.228987216949463 4.136443257331848" 
           to="360 13.228987216949463 4.136443257331848"
           dur="16s"
           repeatCount="indefinite" />
      </path>
      <path
         style="fill:#26a7ce;fill-opacity:0.62699998;stroke:#000000;stroke-width:0.042804;stroke-miterlimit:4;stroke-dasharray:none;stroke-opacity:0.62745098"
         inkscape:connector-curvature="0"
         d="m 10.782792,2.4233421 a 2.9860068,2.9860068 0 0 0 0.333871,3.8241095 L 11.9385,5.4256146 A 1.8191699,1.8191699 0 0 1 11.733897,3.0885162 Z m 4.271839,1.7121595 c 0,0.900596 -0.652333,1.647954 -1.508413,1.797768 l 0.201179,1.143723 a 2.9860068,2.9860068 0 0 0 2.468078,-2.940635 z"
         id="core-layer-2">
        <animateTransform
           attributeName="transform"
           type="rotate"
           from="0 13.228987216949463 4.136443257331848" 
           to="360 13.228987216949463 4.136443257331848"
           dur="12s"
           repeatCount="indefinite" />
      </path>
      <path
         style="fill:#26a7ce;fill-opacity:0.62699998;stroke:#000000;stroke-width:0.042804;stroke-miterlimit:4;stroke-dasharray:none;stroke-opacity:0.62745098"
         inkscape:connector-curvature="0"
         d="m 13.228612,1.1494952 c -0.260248,0 -0.520496,0.034243 -0.772184,0.1018735 l 0.299628,1.1214647 a 1.8294428,1.8294428 0 0 1 0.631787,-0.054789 L 13.48886,1.1606243 a 2.944915,2.944915 0 0 0 -0.260248,-0.011129 z m 0.77304,0.1018735 -0.299628,1.1214647 c 0.208028,0.055645 0.401502,0.1472458 0.573574,0.267953 l 0.66603,-0.9502487 a 2.987719,2.987719 0 0 0 -0.939976,-0.439169 z m 1.052979,2.8849889 c 0,0.219157 -0.03938,0.428896 -0.111291,0.624083 l 1.091502,0.397221 c 0.119851,-0.327879 0.179777,-0.673735 0.179777,-1.021304 z m -2.872149,1.494716 -0.66603,0.950249 c 0.285075,0.200322 0.603537,0.34928 0.939976,0.439169 l 0.299628,-1.121465 a 1.8148895,1.8148895 0 0 1 -0.573574,-0.267953 z"
         id="core-layer-3">
        <animateTransform
           attributeName="transform"
           type="rotate"
           from="0 13.228987216949463 4.136443257331848" 
           to="-360 13.228987216949463 4.136443257331848"
           dur="8s"
           repeatCount="indefinite" />
      </path>
    </g>
  </g>
</svg>
