<?xml version="1.0" standalone="no"?>
<!DOCTYPE svg PUBLIC "-//W3C//DTD SVG 20010904//EN"
 "http://www.w3.org/TR/2001/REC-SVG-20010904/DTD/svg10.dtd">
<svg version="1.0" xmlns="http://www.w3.org/2000/svg"
 width="512.000000pt" height="512.000000pt" viewBox="0 0 512.000000 512.000000"
 preserveAspectRatio="xMidYMid meet">
<metadata>
Created by potrace 1.11, written by Peter Selinger 2001-2013
</metadata>
<g transform="translate(0.000000,512.000000) scale(0.100000,-0.100000)"
fill="#000000" stroke="none">
<path d="M2465 5114 c-22 -2 -91 -9 -154 -14 -578 -53 -1138 -317 -1556 -735
-665 -666 -911 -1645 -639 -2544 326 -1075 1321 -1814 2444 -1814 1037 0 1970
628 2365 1591 294 719 239 1550 -147 2225 -413 721 -1139 1194 -1958 1276
-130 13 -302 20 -355 15z m278 -404 c2 -3 -12 -189 -32 -415 l-36 -410 -150
-6 c-334 -14 -613 -124 -844 -333 l-54 -48 -296 297 -296 296 60 56 c345 320
775 511 1275 567 49 5 367 2 373 -4z m547 -116 c534 -195 978 -596 1215 -1099
74 -155 88 -195 73 -200 -7 -3 -181 -66 -387 -140 -205 -75 -378 -134 -383
-133 -5 2 -24 37 -42 78 -134 306 -393 555 -713 686 -60 24 -116 44 -125 44
-10 0 -18 7 -18 16 0 14 191 740 205 783 7 18 55 8 175 -35z m-2151 -1039
c181 -126 330 -233 331 -237 0 -4 -20 -40 -44 -81 -90 -146 -153 -332 -177
-512 -14 -111 -7 -322 15 -425 50 -231 164 -460 304 -612 l56 -59 -298 -297
-297 -297 -56 60 c-255 275 -443 636 -523 1000 -102 470 -46 962 159 1390 72
150 168 307 186 303 8 -2 162 -106 344 -233z m1676 -70 c170 -50 280 -113 407
-233 269 -257 364 -628 251 -987 -88 -280 -319 -517 -597 -611 -208 -71 -424
-71 -632 0 -133 45 -239 111 -351 219 -204 197 -305 454 -290 740 12 244 113
463 290 634 119 114 228 180 376 227 124 39 172 45 321 41 109 -2 152 -8 225
-30z m1905 -992 c0 -38 -7 -120 -15 -183 -87 -725 -523 -1348 -1174 -1679
-177 -90 -419 -172 -571 -194 -19 -3 -69 -11 -110 -18 -141 -25 -629 -13 -658
16 -5 5 128 771 139 801 7 20 11 20 76 11 63 -8 323 -4 368 7 11 2 43 9 70 15
148 33 323 109 458 197 93 61 290 258 351 351 136 207 208 417 223 651 l6 92
419 0 418 0 0 -67z m-2835 -1069 c77 -47 234 -116 293 -128 19 -5 32 -14 32
-23 0 -23 -202 -777 -211 -787 -16 -19 -248 63 -411 145 -125 63 -259 149
-256 164 4 19 461 674 470 675 4 0 41 -21 83 -46z"/>
<path d="M2412 3140 c-109 -29 -187 -74 -272 -160 -87 -86 -131 -163 -160
-276 -36 -141 -18 -294 52 -427 42 -81 164 -203 245 -245 133 -70 286 -88 427
-52 113 29 190 73 276 160 87 86 131 163 160 276 36 141 18 294 -52 427 -42
81 -164 203 -245 245 -132 69 -291 88 -431 52z"/>
</g>
</svg>
