<?xml version="1.0" encoding="UTF-8" standalone="no"?>
<svg
   xmlns:dc="http://purl.org/dc/elements/1.1/"
   xmlns:cc="http://creativecommons.org/ns#"
   xmlns:rdf="http://www.w3.org/1999/02/22-rdf-syntax-ns#"
   xmlns:svg="http://www.w3.org/2000/svg"
   xmlns="http://www.w3.org/2000/svg"
   xmlns:sodipodi="http://sodipodi.sourceforge.net/DTD/sodipodi-0.dtd"
   xmlns:inkscape="http://www.inkscape.org/namespaces/inkscape"
   viewBox="0 0 26.458 13"
   version="1.1"
   id="core-defense-logo"
   sodipodi:docname="core_defense_logo_font_only.svg"
   inkscape:version="0.92.4 (unknown)"
   width="26.458"
   height="13"
   inkscape:export-filename="/home/ehmprah/Drive/Projects/Core Defense/Logo/core_defense_logo_font_only.png"
   inkscape:export-xdpi="3715.47"
   inkscape:export-ydpi="3715.47">
  <metadata
     id="metadata20">
    <rdf:RDF>
      <cc:Work
         rdf:about="">
        <dc:format>image/svg+xml</dc:format>
        <dc:type
           rdf:resource="http://purl.org/dc/dcmitype/StillImage" />
        <dc:title />
      </cc:Work>
    </rdf:RDF>
  </metadata>
  <defs
     id="defs18" />
  <sodipodi:namedview
     pagecolor="#ffffff"
     bordercolor="#666666"
     borderopacity="1"
     objecttolerance="10"
     gridtolerance="10"
     guidetolerance="10"
     inkscape:pageopacity="0"
     inkscape:pageshadow="2"
     inkscape:window-width="2560"
     inkscape:window-height="1011"
     id="namedview16"
     showgrid="false"
     inkscape:zoom="25.701112"
     inkscape:cx="-1.7329036"
     inkscape:cy="7.4849944"
     inkscape:window-x="0"
     inkscape:window-y="0"
     inkscape:window-maximized="1"
     inkscape:current-layer="core-defense-logo" />
  <path
     d="M 6.262,1.2839992 5.52,2.0239994 v 2.9100004 l 0.023,0.023 0.72,0.719 h 2.132 l 0.684,-0.684 v -0.002 l 0.045,-0.045 v -0.758 h -0.98 v 0.39 l -0.237,0.24 H 6.763 L 6.5,4.5519998 V 2.4049994 l 0.197,-0.197 0.065,-0.066 h 1.145 l 0.237,0.238 v 0.3900004 h 0.112 v 0.002 h 0.823 v -0.002 H 9.124 V 2.0119994 L 8.395,1.2829992 Z m 3.96,0 -0.741,0.7400002 v 2.9100004 l 0.023,0.023 0.719,0.719 h 2.243 l 0.695,-0.696 0.047,-0.046 V 2.0239994 L 12.466,1.2839992 Z m 3.553,0 v 4.3920006 h 0.98 v -1.62 h 1.204 l 0.32,0.355 v 1.265 h 0.979 v -1.514 l -0.019,-0.021 -0.386,-0.423 0.336,-0.34 v -10e-4 l 0.046,-0.047 V 1.9839994 L 16.542,1.2839992 Z m 4.083,0 v 4.3920006 h 3.217 v -0.853 H 18.84 v -0.932 h 2.06 v -0.842 H 18.839 V 2.1379994 h 2.236 V 1.2839992 Z m -7.57,0.158 -0.65,0.6500002 z m 4.467,0.6900002 h 1.348 l 0.164,0.164 v 0.7580004 l -0.166,0.165 h -1.346 z m -4.031,0.012 h 1.24 l 0.262,0.26 v 2.1500004 l -0.263,0.263 h -1.239 l -0.263,-0.263 V 2.4059994 Z m 8.068,1.0640004 h 1.95 z m -4.082,0.169 h 1.458 z m -2.372,1.287 v 0.002 l -0.308,0.308 h -1.306 l -0.002,-0.002 h 1.307 l 0.023,-0.021 z m -4.082,0.025 -0.284,0.285 h -1.21 l -10e-4,-0.002 h 1.21 z m -8.059,2.643 V 11.724 H 3.02 L 3.746,10.998 V 10.997 L 3.791,10.952 V 8.1019998 l -0.772,-0.77 z m 4.162,0 V 11.724 H 7.577 V 10.87 H 5.34 V 9.9399998 h 2.016 v -0.001 h 0.047 v -0.842 H 5.34 v -0.911 h 2.238 v -0.854 z m 3.664,0 V 11.724 h 0.981 v -1.67 h 1.887 V 9.1999998 H 9.004 v -1.014 h 2.178 v -0.854 z m 3.484,0 V 11.724 h 3.219 V 10.87 H 12.487 V 9.9399998 h 2.017 v -0.001 h 0.046 v -0.842 h -2.063 v -0.911 h 2.239 v -0.854 z m 3.665,0 V 11.724 h 0.951 V 9.0209998 L 17.9,11.724 h 0.859 V 7.3319998 h -0.95 V 10.038 L 16.031,7.3319998 Z m 4.835,0 -0.697,0.7 v 1.184 l 0.697,0.7 h 1.604 L 21.765,10.067 v 0.638 l -0.16,0.16 H 20.419 L 20.265,10.71 v -0.403 h -0.968 v 0.717 l 0.023,0.023 0.676,0.677 h 2.026 l 0.665,-0.666 0.046,-0.046 V 9.7559998 l -0.7,-0.7 H 20.43 l -0.153,-0.154 v -0.556 l 0.153,-0.155 h 1.132 l 0.154,0.154 v 0.41 h 0.968 v -0.723 l -0.699,-0.7 z m 3.233,0 V 11.724 h 3.218 V 10.87 H 24.22 V 9.9399998 h 2.017 v -0.001 h 0.046 v -0.842 H 24.22 v -0.911 h 2.238 v -0.854 z m -3.166,0.158 -0.608,0.608 v -0.002 z m -18.897,0.702 h 1.372 l 0.26,0.262 V 10.601 l -0.26,0.263 H 1.177 Z m 19.252,1.02 h 1.538 l 0.002,0.002 h -1.538 z m -15.136,0.043 h 1.951 v 10e-4 H 5.293 Z m 7.149,0 h 1.95 v 10e-4 h -1.95 z m 11.733,0 h 1.95 v 10e-4 h -1.95 z m -15.217,0.103 h 1.776 v 10e-4 H 8.958 Z M 17.908,10.362 h 0.013 -0.012 z m 1.546,0.103 h 0.653 z m 2.423,0.35 v 0.001 l -0.206,0.206 h -0.002 z"
     style="line-height:1;-inkscape-font-specification:'Chakra Petch Bold';text-align:center"
     id="text-shadow"
     inkscape:connector-curvature="0" />
  <path
     d="m 23.069,7.1219998 h 3.06 v 0.695 h -2.238 v 1.07 h 2.063 v 0.684 H 23.89 V 10.66 h 2.238 v 0.695 h -3.06 z M 19.126,10.702 v -0.605 h 0.81 v 0.357 l 0.2,0.2 h 1.252 l 0.205,-0.206 V 9.7469998 l -0.2,-0.2 h -1.602 l -0.653,-0.653 v -1.119 l 0.653,-0.653 h 1.911 l 0.653,0.653 v 0.61 h -0.81 v -0.362 l -0.2,-0.2 h -1.197 l -0.2,0.2 v 0.623 l 0.2,0.2 h 1.602 l 0.654,0.653 V 10.69 l -0.666,0.665 h -1.96 z M 15,7.1219998 h 0.738 l 1.887,2.873 h 0.012 v -2.873 h 0.792 V 11.355 H 17.691 L 15.804,8.4889998 H 15.792 V 11.355 H 15 Z m -3.665,0 h 3.06 v 0.695 h -2.238 v 1.07 h 2.063 v 0.684 H 12.157 V 10.66 h 2.238 v 0.695 h -3.06 z m -3.484,0 h 3 v 0.695 H 8.675 v 1.174 h 1.887 v 0.695 H 8.675 V 11.356 H 7.852 Z m -3.665,0 h 3.06 v 0.695 H 5.01 v 1.07 h 2.062 v 0.684 H 5.01 V 10.66 h 2.237 v 0.695 h -3.06 z m -4.161,0 h 2.71 l 0.725,0.726 V 10.63 L 2.735,11.355 H 0.026 Z M 2.329,10.654 2.638,10.345 V 8.1319998 l -0.309,-0.309 H 0.85 V 10.653 Z M 17.685,1.0739992 h 3.06 V 1.7689994 H 18.51 v 1.0700004 h 2.062 v 0.684 H 18.51 v 1.089 h 2.237 v 0.695 h -3.06 z m -0.756,2.8300006 v 1.403 h -0.822 v -1.215 l -0.363,-0.405 h -1.319 v 1.62 H 13.603 V 1.0739992 h 2.655 l 0.647,0.6530002 v 1.2820004 l -0.411,0.417 z m -2.504,-0.895 h 1.458 l 0.212,-0.212 V 1.9749994 l -0.212,-0.212 h -1.458 z m -5.115,1.603 V 1.7689994 l 0.695,-0.6950002 h 2.177 l 0.696,0.6950002 v 2.8430004 l -0.696,0.695 h -2.177 z m 2.437,-0.006 0.308,-0.309 V 2.0839994 l -0.308,-0.309 h -1.306 l -0.309,0.309 v 2.2130004 l 0.309,0.309 z m -6.399,0.006 V 1.7689994 L 6.044,1.0739992 h 2.068 l 0.684,0.6830002 v 0.647 H 7.973 v -0.344 l -0.284,-0.285 h -1.21 l -0.308,0.309 v 2.2130004 l 0.308,0.309 h 1.21 l 0.284,-0.284 v -0.345 h 0.823 v 0.647 l -0.684,0.683 H 6.044 Z"
     id="text"
     inkscape:connector-curvature="0"
     style="fill:#26a7ce;stroke:#000000;stroke-width:0.05;stroke-miterlimit:4;stroke-dasharray:none" />
</svg>
